# xmcd
#
# Track frame offsets: 
#        150
#        32228
#        41522
#        50455
#        63335
#        78740
#        90713
#        112668
#        125732
#        133493
#        151087
#        160578
#        176197
#        186854
#        202227
#
# Disc length: 2947 seconds
#
# Revision: 0
# Processed by: cddbd v1.5.2PL0 Copyright (c) Steve Scherf et al.
# Submitted via: ExactAudioCopy v1.0b3
#
DISCID=d30b810f
DTITLE=ちあきなおみ - ちあきなおみ リサイタル 1974年 中野サンプラザ Disc 1 COCP-35984-5
DYEAR=1900
DGENRE=Blues
TTITLE0=私はこうして生きてきました
TTITLE1=雨に濡れた慕情
TTITLE2=私という女
TTITLE3=夜間飛行
TTITLE4=四つのお願い
TTITLE5=イロケの歌
TTITLE6=帰らざる青春 HIER ENCORE
TTITLE7=新宿情話
TTITLE8=人生の並木路
TTITLE9=命かれても
TTITLE10=別れたあとで
TTITLE11=うちへ帰るのがこわい J'AI PEUR DE REVENIR
TTITLE12=そっとおやすみ
TTITLE13=愛のフィナーレ
TTITLE14=ボン・ボヮヤージュ BON VOYAGE 
EXTD=
EXTT0=
EXTT1=
EXTT2=
EXTT3=
EXTT4=
EXTT5=
EXTT6=
EXTT7=
EXTT8=
EXTT9=
EXTT10=
EXTT11=
EXTT12=
EXTT13=
EXTT14=
PLAYORDER=
